<?xml version="1.0" encoding="utf-8"?>
<!-- Generator: Adobe Illustrator 16.2.1, SVG Export Plug-In . SVG Version: 6.00 Build 0)  -->
<!DOCTYPE svg PUBLIC "-//W3C//DTD SVG 1.1//EN" "http://www.w3.org/Graphics/SVG/1.1/DTD/svg11.dtd">
<svg version="1.1" id="Layer_1" xmlns="http://www.w3.org/2000/svg" xmlns:xlink="http://www.w3.org/1999/xlink" x="0px" y="0px"
	 width="744px" height="165px" viewBox="0 0 744 165" enable-background="new 0 0 744 165" xml:space="preserve">
<g>
	<path d="M58.311,32.114c0,5.328-1.872,22.032-4.608,38.447c6.192-9.504,15.264-14.112,22.32-14.112
		c10.512,0,15.983,7.2,15.983,16.848c0,5.328-5.904,28.224-5.904,34.56c0,3.312,1.008,6.336,4.896,8.64
		c-2.448,7.344-8.928,10.944-14.976,10.944c-6.48,0-12.384-4.176-12.384-12.096c0-9.504,5.472-27.359,5.472-37.727
		c0-4.896-1.44-8.064-4.752-8.064c-4.464,0-11.231,9.216-13.68,19.728l-0.288,1.44c-1.008,7.488-2.736,17.28-2.736,24.912
		c0,3.024,0.288,5.76,0.576,8.208c-2.592,1.152-7.488,2.448-12.096,2.448c-5.76,0-11.088-1.872-11.088-8.064
		c0-8.928,11.088-69.263,11.088-80.351c0-3.168-1.296-6.335-4.464-6.768c1.008-6.624,7.2-11.952,15.696-11.952
		C56.151,19.154,58.311,25.202,58.311,32.114z"/>
	<path d="M156.23,115.632c0,7.056-12.24,11.808-24.479,11.808c-14.543,0-30.095-6.624-30.095-25.056
		c0-23.04,16.127-46.223,41.183-46.223c10.368,0,19.583,6.048,19.583,17.28c0,17.712-15.12,27.072-33.695,27.072
		c-1.584,0-3.024-0.144-4.32-0.288c0,10.8,5.184,14.256,11.375,14.256c4.032,0,8.352-1.296,12.816-7.776
		C152.63,108.72,156.23,112.176,156.23,115.632z M139.527,75.169c0-3.456-2.304-6.048-4.752-6.048c-4.32,0-8.784,8.064-9.792,21.888
		c0.72,0.144,1.44,0.144,2.16,0.144C135.207,91.153,139.527,83.089,139.527,75.169z"/>
	<path d="M202.886,32.114c0,10.656-9.216,67.967-9.216,75.599c0,3.312,1.008,6.336,4.608,8.64
		c-1.728,4.752-6.048,11.088-14.112,11.088c-11.232,0-12.816-7.056-12.816-13.104c0-12.528,9.36-64.943,9.36-76.463
		c0-3.168-1.296-6.335-4.464-6.768c1.008-6.624,7.2-11.952,15.696-11.952C200.726,19.154,202.886,25.202,202.886,32.114z"/>
	<path d="M241.91,32.114c0,10.656-9.216,67.967-9.216,75.599c0,3.312,1.008,6.336,4.608,8.64
		c-1.728,4.752-6.048,11.088-14.112,11.088c-11.232,0-12.816-7.056-12.816-13.104c0-12.528,9.36-64.943,9.36-76.463
		c0-3.168-1.296-6.335-4.464-6.768c1.008-6.624,7.2-11.952,15.696-11.952C239.75,19.154,241.91,25.202,241.91,32.114z"/>
	<path d="M246.95,98.497c0-23.328,15.839-42.191,38.591-42.191c17.855,0,28.655,10.512,28.655,27.792
		c0,23.328-16.704,43.343-39.167,43.343C257.461,127.44,246.95,115.632,246.95,98.497z M270.277,96.336
		c0,10.08,3.024,18.144,8.784,18.144c7.056,0,11.52-13.536,11.52-26.64c0-10.368-2.88-18.576-8.784-18.576
		C274.741,69.265,270.277,83.089,270.277,96.336z"/>
	<path d="M321.109,119.808c0-6.912,5.76-13.392,13.968-13.392c7.344,0,10.656,5.616,10.656,12.815
		c0,12.672-10.512,30.24-24.479,30.24c-4.464,0-5.76-2.16-5.76-4.752c0-1.296,0.288-2.592,0.72-3.888h0.576
		c5.328,0,10.368-5.76,10.368-10.656c0-2.592-1.44-5.04-5.184-5.904C321.397,122.832,321.109,121.248,321.109,119.808z"/>
	<path d="M387.777,60.193c3.167-2.304,8.64-3.888,13.68-3.888c9.647,0,12.384,4.32,12.384,11.232c0,9.216-4.608,22.463-4.608,34.703
		c0,3.312,0.288,6.48,1.152,9.504c11.088-3.024,17.136-26.352,17.136-39.743c0-4.32-0.576-9.072-2.16-12.096
		c2.736-2.16,7.344-3.6,11.952-3.6c6.192,0,12.24,2.736,12.24,9.504c0,5.616-2.016,13.824-5.76,22.607
		c0,14.112,0.72,19.44,2.304,23.328c11.087-3.024,17.135-26.352,17.135-39.743c0-4.32-0.576-9.072-2.16-12.096
		c2.736-2.16,7.344-3.6,11.952-3.6c6.192,0,12.24,2.736,12.24,9.504c0,17.568-19.872,61.631-48.671,61.631
		c-2.304,0-4.176-0.288-6.336-1.152c-3.024-2.592-4.176-6.192-4.608-10.368c-7.056,6.912-15.408,11.52-24.768,11.52
		c-2.304,0-4.176-0.288-6.336-1.152c-5.472-4.752-7.056-11.808-7.056-19.296c0-13.68,3.024-17.567,3.024-33.695
		C390.513,68.545,389.361,63.505,387.777,60.193z"/>
	<path d="M489.152,98.497c0-23.328,15.839-42.191,38.591-42.191c17.855,0,28.655,10.512,28.655,27.792
		c0,23.328-16.704,43.343-39.167,43.343C499.664,127.44,489.152,115.632,489.152,98.497z M512.479,96.336
		c0,10.08,3.024,18.144,8.784,18.144c7.056,0,11.52-13.536,11.52-26.64c0-10.368-2.88-18.576-8.784-18.576
		C516.943,69.265,512.479,83.089,512.479,96.336z"/>
	<path d="M588.511,116.928c0,2.304,0.288,4.752,0.576,6.912c-3.456,1.584-9.072,2.448-12.24,2.448
		c-8.352,0-10.944-3.888-10.944-8.064c0-3.312,5.76-35.279,5.76-42.767c0-3.456-1.152-6.624-4.464-7.344
		c0.72-5.616,5.76-11.952,14.832-11.952c8.496,0,11.952,4.752,11.952,11.808c0,1.728-0.144,2.88-0.576,5.328
		c5.904-11.952,13.68-16.992,19.296-16.992c5.328,0,7.344,3.456,7.344,7.632c0,4.464-2.448,9.648-5.616,12.24
		c-3.167-2.592-6.768-3.6-8.928-3.6c-8.784,0-13.248,12.24-15.264,19.872C588.799,105.984,588.511,110.304,588.511,116.928z"/>
	<path d="M654.606,32.114c0,10.656-9.216,67.967-9.216,75.599c0,3.312,1.008,6.336,4.608,8.64
		c-1.729,4.752-6.048,11.088-14.112,11.088c-11.231,0-12.815-7.056-12.815-13.104c0-12.528,9.359-64.943,9.359-76.463
		c0-3.168-1.296-6.335-4.464-6.768c1.009-6.624,7.2-11.952,15.696-11.952C652.446,19.154,654.606,25.202,654.606,32.114z"/>
	<path d="M708.75,38.162c0-4.896-2.16-6.624-4.464-7.056c0.864-6.768,7.632-11.952,15.552-11.952
		c6.911,0,11.088,3.456,11.088,12.815c0,9.504-9.216,68.831-9.216,75.887c0,3.456,0.863,6.048,4.464,8.496
		c-2.736,8.064-8.353,11.088-14.544,11.088c-8.208,0-12.24-4.752-12.24-13.248c0-1.008,0-2.16,0.145-3.168
		c-5.472,10.8-13.68,16.416-21.744,16.416c-10.367,0-18.144-8.352-18.144-25.631c0-24.624,13.392-45.503,30.96-45.503
		c5.328,0,9.792,2.304,15.264,7.056C707.454,54.577,708.75,39.458,708.75,38.162z M704.286,74.449
		c-3.456-4.176-6.912-5.184-9.36-5.184c-6.623,0-12.527,11.232-12.527,27.792c0,9.072,1.728,17.567,6.336,17.567
		c3.312,0,8.928-6.192,12.096-15.839L704.286,74.449z"/>
</g>
</svg>
