<?xml version="1.0" encoding="utf-8"?>
<!-- Generator: Adobe Illustrator 16.2.1, SVG Export Plug-In . SVG Version: 6.00 Build 0)  -->
<!DOCTYPE svg PUBLIC "-//W3C//DTD SVG 1.1//EN" "http://www.w3.org/Graphics/SVG/1.1/DTD/svg11.dtd">
<svg version="1.1" id="Layer_1" xmlns="http://www.w3.org/2000/svg" xmlns:xlink="http://www.w3.org/1999/xlink" x="0px" y="0px"
	 width="1280px" height="800px" viewBox="0 0 1280 800" enable-background="new 0 0 1280 800" xml:space="preserve">
<path fill="none" stroke="#000000" stroke-miterlimit="10" d="M307.082,744.359c0,0-157.627,49.507-265.748-71.132
	c0,0,69.993-5.122,80.805-22.193l13.657-149.66c0,0-31.298,5.122-29.021-14.796c2.276-19.917,6.26-14.226,6.26-14.226
	s11.382,24.469,23.9,17.64c0,0-6.829-12.521,5.122-12.52c11.95,0.001,45.524,4.553,59.181-21.055s21.056-61.458,15.934-93.894
	s-33.005-37.558-33.005-37.558s26.746,12.519,22.762,56.336c-3.983,43.817-21.625,68.856-34.712,79.668s-32.436,13.089-52.922-3.414
	c-20.486-16.503-50.078-55.768-59.182-95.601C51.007,322.121,6.051,146.852,181.889,63.771
	c175.839-83.082,286.236,47.801,286.236,47.801s3.374,125.993-72.878,157.291c-76.253,31.298-97.308,15.935-129.745,45.525
	c0,0-11.381,40.972,8.536,52.353c0,0-34.712-15.365-21.624-60.32c0,0,13.657,19.917,52.922-3.983s57.478,17.641,17.642,20.486
	c-39.835,2.845-61.459-13.088-57.476,10.243c0,0,13.089-7.967,25.039-7.398s23.899,10.812,31.297,10.243
	c7.399-0.569-14.226,5.122-29.59,10.812c-15.365,5.69-25.608-5.122-25.608-5.122s7.397,3.415,13.088,2.845
	c0,0-6.26-12.52,2.845-15.364c9.105-2.845,25.038-3.983,15.365,12.519c-9.674,16.502-11.382-13.088-6.829-10.812"/>
<path fill="none" stroke="#000000" stroke-miterlimit="10" d="M143.764,491.698c0,0-21.623,110.966,87.065,165.595
	c108.688,54.629,132.02,38.696,138.849,35.282c6.829-3.415,3.414-6.829,3.414-6.829s27.316,14.228,62.597-21.623
	s36.419-53.49,48.369-75.684s22.193-31.297,35.85-81.943c13.658-50.646,40.404-153.645,30.729-202.015
	c0,0,7.399,52.353,2.846,62.596c0,0,54.061-68.855,35.85-130.882c-18.21-62.027-59.184-97.309-123.486-106.414
	c0,0,28.455,5.121,29.592,10.812c1.137,5.691,15.932,76.254,7.966,95.033s-34.143,31.297-34.143,31.297s14.797,1.139,14.227,9.674
	c-0.57,8.536,6.829,19.347,6.829,19.347s25.604-2.277,37.556,9.674c11.952,11.951,14.228,26.746,14.228,26.746l-5.69,9.674
	c0,0,12.52,0.569,1.707,12.52c-10.813,11.95-10.813,11.95-10.813,11.95s-1.706-16.503-13.087-17.641
	c-11.381-1.138-33.006-2.276-38.127,9.674c0,0,34.711-43.249,51.215-1.139l-14.794,1.707c0,0,2.276-13.087-9.674-10.242
	c-11.95,2.845-7.967,16.502-1.708,17.64c6.26,1.138,8.536-5.69,8.536-5.69s11.952-15.934-9.104-15.365s-26.746,19.917-26.746,19.917
	l10.812,121.208l-90.479,35.851"/>
<path fill="none" stroke="#000000" stroke-miterlimit="10" d="M436.826,659.57c0,0,22.193,0,49.507,27.314
	c27.315,27.314,54.062,37.556,67.15,42.109C566.57,733.547,612.095,762,612.095,762"/>
<path fill="none" stroke="#000000" stroke-miterlimit="10" d="M377.646,485.438c0,0-6.262,9.106-3.984,18.211
	c0,0,25.609-13.657,34.713-3.415c9.104,10.243,6.258,38.695,6.258,38.695l-13.657,2.846c0,0,0.568,20.484,6.829,24.469
	s-6.26,18.778-10.243,29.021s-6.827,18.209-19.916,20.486s-49.508-11.38-50.646-35.28c0,0,11.382,12.521,21.625,22.193
	c10.243,9.672,25.038,0,25.038,0l-0.569,24.469l-3.414-25.607c0,0-9.104,21.624-44.955-20.486c0,0-2.277,1.707-9.106-1.707
	c0,0,47.232-22.193,52.354-30.729c0,0-1.137,9.106,14.796,9.675c15.933,0.568,11.95-9.104,25.607-6.828
	c13.657,2.275,13.088,11.38,13.657,17.64c0.568,6.26-2.276,10.241-8.536,10.812c-6.26,0.57-8.536-5.12-15.364-4.552
	c-6.829,0.569-5.122,3.981-11.382,2.845c-6.26-1.137,0.002-7.966-10.811-7.966c-10.813,0-27.883,10.243-44.387,10.243"/>
</svg>
